<svg width="1440" height="3689" viewBox="0 0 1440 3689" fill="none" xmlns="http://www.w3.org/2000/svg">
<path d="M155.813 705.277L427.472 530.883" stroke="#A5ADBA" stroke-miterlimit="10" stroke-linecap="round" stroke-dasharray="1 1"/>
<path d="M74.855 470.846L383.78 410.236" stroke="#A5ADBA" stroke-miterlimit="10" stroke-linecap="round" stroke-dasharray="1 1"/>
<path d="M71 219.546L379.925 280.155" stroke="#A5ADBA" stroke-miterlimit="10" stroke-linecap="round" stroke-dasharray="1 1"/>
<path d="M144.503 -18.0303L416.163 156.364" stroke="#A5ADBA" stroke-miterlimit="10" stroke-linecap="round" stroke-dasharray="1 1"/>
<path d="M286.63 -213.296L488.383 54.0136" stroke="#A5ADBA" stroke-miterlimit="10" stroke-linecap="round" stroke-dasharray="1 1"/>
<path d="M1122.68 -229.306L921.188 37.718" stroke="#A5ADBA" stroke-miterlimit="10" stroke-linecap="round" stroke-dasharray="1 1"/>
<path d="M1270.72 -39.7588L999.318 134.636" stroke="#A5ADBA" stroke-miterlimit="10" stroke-linecap="round" stroke-dasharray="1 1"/>
<path d="M1351.68 194.959L1043.01 255.282" stroke="#A5ADBA" stroke-miterlimit="10" stroke-linecap="round" stroke-dasharray="1 1"/>
<path d="M1355.79 445.972L1046.87 385.363" stroke="#A5ADBA" stroke-miterlimit="10" stroke-linecap="round" stroke-dasharray="1 1"/>
<path d="M1282.03 683.55L1010.63 509.155" stroke="#A5ADBA" stroke-miterlimit="10" stroke-linecap="round" stroke-dasharray="1 1"/>
<path d="M1139.9 878.814L938.409 611.505" stroke="#A5ADBA" stroke-miterlimit="10" stroke-linecap="round" stroke-dasharray="1 1"/>
<path d="M946.374 1008.32L839.201 680.404" stroke="#A5ADBA" stroke-miterlimit="10" stroke-linecap="round" stroke-dasharray="1 1"/>
<path d="M713.524 931.991L713.524 707.278" stroke="#A5ADBA" stroke-miterlimit="10" stroke-linecap="round" stroke-dasharray="1 1"/>
<path d="M501.491 1016.9L608.921 688.981" stroke="#A5ADBA" stroke-miterlimit="10" stroke-linecap="round" stroke-dasharray="1 1"/>
<path d="M304.107 894.825L505.602 627.801" stroke="#A5ADBA" stroke-miterlimit="10" stroke-linecap="round" stroke-dasharray="1 1"/>
<path d="M155.813 705.277L427.472 530.883" stroke="#A5ADBA" stroke-miterlimit="10" stroke-linecap="round" stroke-dasharray="1 1"/>
<path d="M74.855 470.846L383.78 410.236" stroke="#A5ADBA" stroke-miterlimit="10" stroke-linecap="round" stroke-dasharray="1 1"/>
<path d="M71 219.546L379.925 280.155" stroke="#A5ADBA" stroke-miterlimit="10" stroke-linecap="round" stroke-dasharray="1 1"/>
<path d="M144.503 -18.0303L416.163 156.364" stroke="#A5ADBA" stroke-miterlimit="10" stroke-linecap="round" stroke-dasharray="1 1"/>
<path d="M286.63 -213.296L488.383 54.0136" stroke="#A5ADBA" stroke-miterlimit="10" stroke-linecap="round" stroke-dasharray="1 1"/>
<g clip-path="url(#clip0_1_468)">
<path d="M1141.27 300.424L1259.14 178.735L1430.88 221.388L1312.33 343.039L1141.27 300.424Z" fill="#C5E9DA" stroke="#36B37E" stroke-width="2.29137" stroke-miterlimit="10" stroke-linejoin="round"/>
<path d="M1312.33 343.039L1430.88 221.388L1467.51 388.633L1357.23 507.573L1312.33 343.039Z" fill="white" stroke="#36B37E" stroke-width="2.29137" stroke-miterlimit="10" stroke-linejoin="round"/>
<path d="M1312.33 343.038L1240.12 406.489L1357.23 507.572L1312.33 343.038Z" fill="white" stroke="#36B37E" stroke-width="2.29137" stroke-miterlimit="10" stroke-linejoin="round"/>
<path d="M1240.12 406.49L1141.27 300.424L1312.33 343.039L1240.12 406.49Z" fill="white" stroke="#36B37E" stroke-width="2.29137" stroke-miterlimit="10" stroke-linejoin="round"/>
<path d="M1357.23 507.573L1185.14 461.18L1240.12 406.49L1357.23 507.573Z" fill="#C5E9DA" stroke="#36B37E" stroke-width="2.29137" stroke-miterlimit="10" stroke-linejoin="round"/>
<path d="M1141.27 300.424L1185.14 461.18L1240.12 406.49L1141.27 300.424Z" fill="white" stroke="#36B37E" stroke-width="2.29137" stroke-miterlimit="10" stroke-linejoin="round"/>
<path d="M1276.12 374.792L1297.98 355.747L1276.12 374.792Z" fill="#644DF2"/>
<path d="M1293.23 338.329L1297.98 355.748L1312.33 343.039L1293.23 338.329Z" fill="#36B37E"/>
<path d="M1293.23 338.329L1409.61 216.145L1380.11 208.861L1264.21 331.141L1293.23 338.329Z" fill="#36B37E"/>
<path d="M1242.4 325.592L1358.78 203.408L1329.28 196.124L1213.38 318.404L1242.4 325.592Z" fill="#36B37E"/>
<path d="M1242.4 325.592L1260.04 390.23L1276.12 374.792L1264.21 331.14L1242.4 325.592Z" fill="#36B37E"/>
<path d="M1213.38 318.404L1236.28 402.35L1185.89 348.23L1175.12 308.775L1213.38 318.404Z" fill="#36B37E"/>
<path d="M1175.12 308.775L1192.96 291.506L1158.31 282.697L1141.27 300.424L1175.12 308.775Z" fill="#172B4D"/>
<path d="M1229.69 301.326L1246.3 283.713L1208.52 274.179L1191.43 291.697L1229.69 301.326Z" fill="#172B4D"/>
<path d="M1208.52 274.179L1226.36 256.909L1191.71 248.1L1174.62 265.618L1208.52 274.179Z" fill="#172B4D"/>
<path d="M1235.52 411.127L1240.12 406.49L1202.71 466.081L1185.14 461.18L1235.52 411.127Z" fill="#172B4D"/>
<path d="M1442.4 273.492L1420.63 297.021L1429.45 334.301L1450.65 311.154L1442.4 273.492Z" fill="#36B37E"/>
<path d="M1427.6 326.688L1433.69 354.791L1412.5 377.938L1405.93 349.739L1334.78 425.305C1334.78 425.305 1354.25 496.659 1357.23 507.572C1360.2 518.485 1467.56 388.842 1467.56 388.842L1448.97 304.171L1427.6 326.688Z" fill="#172B4D"/>
</g>
<g opacity="0.88">
<g clip-path="url(#clip1_1_468)">
<path d="M422.707 780.102L381.867 844.873L301.941 841.953L343.087 777.135L422.707 780.102Z" fill="#C5E9DA" stroke="#36B37E" stroke-width="1.11251" stroke-miterlimit="10" stroke-linejoin="round"/>
<path d="M343.088 777.134L301.941 841.953L270.213 771.376L307.949 708.525L343.088 777.134Z" fill="white" stroke="#36B37E" stroke-width="1.11251" stroke-miterlimit="10" stroke-linejoin="round"/>
<path d="M343.088 777.134L369.135 742.364L307.949 708.525L343.088 777.134Z" fill="white" stroke="#36B37E" stroke-width="1.11251" stroke-miterlimit="10" stroke-linejoin="round"/>
<path d="M369.135 742.364L422.707 780.102L343.088 777.134L369.135 742.364Z" fill="white" stroke="#36B37E" stroke-width="1.11251" stroke-miterlimit="10" stroke-linejoin="round"/>
<path d="M307.949 708.525L388.375 713.068L369.135 742.364L307.949 708.525Z" fill="#C5E9DA" stroke="#36B37E" stroke-width="1.11251" stroke-miterlimit="10" stroke-linejoin="round"/>
<path d="M422.707 780.102L388.375 713.068L369.135 742.364L422.707 780.102Z" fill="white" stroke="#36B37E" stroke-width="1.11251" stroke-miterlimit="10" stroke-linejoin="round"/>
<path d="M356.155 759.727L348.253 770.181L356.155 759.727Z" fill="#644DF2"/>
<path d="M351.973 777.444L348.253 770.181L343.088 777.135L351.973 777.444Z" fill="#36B37E"/>
<path d="M351.973 777.444L311.838 842.296L325.562 842.779L365.478 777.929L351.973 777.444Z" fill="#36B37E"/>
<path d="M375.639 778.359L335.504 843.211L349.228 843.694L389.144 778.844L375.639 778.359Z" fill="#36B37E"/>
<path d="M375.64 778.358L361.835 751.405L356.155 759.727L365.478 777.929L375.64 778.358Z" fill="#36B37E"/>
<path d="M389.144 778.844L371.216 743.839L398.533 763.099L406.959 779.551L389.144 778.844Z" fill="#36B37E"/>
<path d="M406.96 779.551L400.673 788.846L416.818 789.525L422.707 780.102L406.96 779.551Z" fill="#172B4D"/>
<path d="M383.515 787.912L377.801 797.246L395.397 797.955L401.331 788.619L383.515 787.912Z" fill="#172B4D"/>
<path d="M395.397 797.955L389.111 807.25L405.256 807.93L411.189 798.594L395.397 797.955Z" fill="#172B4D"/>
<path d="M370.738 739.886L369.135 742.364L380.147 712.532L388.375 713.068L370.738 739.886Z" fill="#172B4D"/>
<path d="M292.011 819.975L299.454 807.547L292.09 791.876L284.865 804.082L292.011 819.975Z" fill="#36B37E"/>
<path d="M293.616 795.07L288.312 783.205L295.538 770.999L301.061 782.862L325.518 742.83C325.518 742.83 310.28 713.076 307.949 708.525C305.618 703.975 270.168 771.288 270.168 771.288L286.256 807.014L293.616 795.07Z" fill="#172B4D"/>
</g>
</g>
<g opacity="0.32">
<g clip-path="url(#clip2_1_468)">
<path d="M542.39 94.1903L560.644 117.444L549.213 146.129L530.981 122.757L542.39 94.1903Z" fill="#C5E9DA" stroke="#36B37E" stroke-width="1.11251" stroke-miterlimit="10" stroke-linejoin="round"/>
<path d="M530.981 122.757L549.213 146.128L519.432 148.509L501.474 126.633L530.981 122.757Z" fill="white" stroke="#36B37E" stroke-width="1.11251" stroke-miterlimit="10" stroke-linejoin="round"/>
<path d="M530.981 122.756L521.717 108.774L501.474 126.632L530.981 122.756Z" fill="white" stroke="#36B37E" stroke-width="1.11251" stroke-miterlimit="10" stroke-linejoin="round"/>
<path d="M521.717 108.774L542.39 94.1895L530.981 122.757L521.717 108.774Z" fill="white" stroke="#36B37E" stroke-width="1.11251" stroke-miterlimit="10" stroke-linejoin="round"/>
<path d="M501.474 126.633L513.56 97.9766L521.717 108.774L501.474 126.633Z" fill="#C5E9DA" stroke="#36B37E" stroke-width="1.11251" stroke-miterlimit="10" stroke-linejoin="round"/>
<path d="M542.39 94.1895L513.56 97.9766L521.717 108.774L542.39 94.1895Z" fill="white" stroke="#36B37E" stroke-width="1.11251" stroke-miterlimit="10" stroke-linejoin="round"/>
<path d="M526.346 115.747L529.123 119.976L526.346 115.747Z" fill="#644DF2"/>
<path d="M532.247 119.565L529.123 119.976L530.981 122.756L532.247 119.565Z" fill="#36B37E"/>
<path d="M532.246 119.566L550.622 142.574L552.578 137.646L534.175 114.718L532.246 119.566Z" fill="#36B37E"/>
<path d="M535.649 111.078L554.024 134.087L555.98 129.159L537.578 106.231L535.649 111.078Z" fill="#36B37E"/>
<path d="M535.649 111.078L524.057 112.601L526.346 115.746L534.175 114.718L535.649 111.078Z" fill="#36B37E"/>
<path d="M537.577 106.23L522.523 108.208L533.07 100.773L540.146 99.8438L537.577 106.23Z" fill="#36B37E"/>
<path d="M540.146 99.8439L542.711 103.336L545.052 97.5531L542.39 94.1891L540.146 99.8439Z" fill="#172B4D"/>
<path d="M540.145 109.455L542.798 112.743L545.338 106.437L542.714 103.068L540.145 109.455Z" fill="#172B4D"/>
<path d="M545.339 106.437L547.903 109.928L550.245 104.146L547.62 100.777L545.339 106.437Z" fill="#172B4D"/>
<path d="M521.024 107.869L521.717 108.774L512.298 100.899L513.56 97.9766L521.024 107.869Z" fill="#172B4D"/>
<path d="M539.932 146.887L536.379 142.568L529.725 143.213L533.226 147.424L539.932 146.887Z" fill="#36B37E"/>
<path d="M531.085 143.073L526.082 143.462L522.581 139.251L527.611 138.781L516.228 124.694C516.228 124.694 503.431 126.375 501.474 126.632C499.517 126.89 519.395 148.514 519.395 148.514L534.473 147.299L531.085 143.073Z" fill="#172B4D"/>
</g>
</g>
<g clip-path="url(#clip3_1_468)">
<path d="M57.2924 349.725L205.988 257.453C205.988 257.453 86.7305 445.868 84.7308 445.056C84.7308 445.056 66.1872 375.239 57.2924 349.725Z" fill="white" stroke="#36B37E" stroke-width="1.43899" stroke-miterlimit="10" stroke-linejoin="round"/>
<path d="M205.988 257.453L210.471 263.623C210.471 263.623 215.303 458.183 214.999 460.079C214.695 461.975 217.678 463.808 212.995 465.012C208.312 466.216 125.384 453.184 104.991 449.093C84.7309 445.056 84.7309 445.056 84.7309 445.056L205.988 257.453Z" fill="#36B37E"/>
<path d="M113.736 338.485L150.14 436.215L212.45 402.506L209.954 300.068L113.736 338.485Z" fill="#C5E9DA"/>
<mask id="mask0_1_468" style="mask-type:alpha" maskUnits="userSpaceOnUse" x="114" y="300" width="99" height="137">
<path d="M114.216 339.19L150.62 436.92L212.93 403.211L210.434 300.773L114.216 339.19Z" fill="#C5E9DA"/>
</mask>
<g mask="url(#mask0_1_468)">
<path d="M203.527 398.561L186.871 395.211L186.487 416.8L168.573 413.871L167.431 437.327L186.017 439.752L203.694 442.118L220.463 444.426L219.779 422.404L203.494 419.671L203.527 398.561Z" fill="#36B37E"/>
<path d="M169.439 391.858L186.871 395.212L187.221 374.852L170.46 370.994L169.439 391.858Z" fill="#36B37E"/>
<path d="M151.208 388.179L149.671 410.697L168.573 413.872L169.44 391.858L151.208 388.179Z" fill="#36B37E"/>
<path d="M151.208 388.179L152.658 367.023L134.002 362.861L131.935 384.387L151.208 388.179Z" fill="#36B37E"/>
<path d="M131.935 384.388L111.809 380.405L108.796 403.878L105.588 428.979L127.378 431.928L147.992 434.711L149.671 410.698L129.727 407.41L131.935 384.388Z" fill="#36B37E"/>
<path d="M249.013 407.411L247.672 388.538L233.607 385.309L218.821 381.943L218.334 363.262L203.39 359.52L187.725 355.642L187.221 374.852L203.448 378.493L203.527 398.562L219.384 401.586L219.779 422.405L235.344 425L234.465 404.607L249.013 407.411Z" fill="#36B37E"/>
<path d="M231.982 349.546L217.867 345.676L218.334 363.261L232.824 366.974L231.982 349.546Z" fill="#36B37E"/>
<path d="M171.26 351.437L187.725 355.641L188.037 337.285L172.135 332.844L155.378 328.211L154.074 347.096L152.658 367.023L170.46 370.993L171.26 351.437Z" fill="#36B37E"/>
<path d="M136.035 342.563L117.196 337.705L114.546 358.374L134.002 362.861L136.035 342.563Z" fill="#36B37E"/>
<path d="M93.915 353.72L90.3737 376.201L111.809 380.405L114.546 358.374L93.915 353.72Z" fill="#36B37E"/>
</g>
<path d="M113.736 338.485L167.509 316.996L128.751 378.755L113.736 338.485Z" fill="#172B4D"/>
<path d="M84.3726 332.769L72.728 401.194" stroke="#36B37E" stroke-width="1.43899" stroke-miterlimit="10" stroke-linejoin="round"/>
<path d="M81.9437 347.159L77.2943 337.194L84.3726 332.769L81.9437 347.159Z" fill="#172B4D"/>
<path d="M177.728 275.018L192.11 278.997" stroke="#36B37E" stroke-width="1.43899" stroke-miterlimit="10" stroke-linejoin="round"/>
<path d="M124.022 368.603L159.48 458.338" stroke="white" stroke-width="1.43899" stroke-miterlimit="10" stroke-linejoin="round"/>
</g>
<g clip-path="url(#clip4_1_468)">
<path d="M1085.3 106.297L976.432 91.8546L930.976 47.7568L937.009 -63.6204L951.795 -84.9273L984.777 -80.3151L1091.14 34.2952L1085.3 106.297Z" fill="#C5E9DA" stroke="#36B37E" stroke-width="1.51665" stroke-miterlimit="10" stroke-linejoin="round"/>
<path d="M1013.28 96.7492L1010.76 64.7279C1010.76 64.7279 999.766 94.9405 995.192 94.3502C990.492 93.6736 1013.28 96.7492 1013.28 96.7492Z" fill="#36B37E"/>
<path d="M1039.3 100.222L1064.25 5.47908" stroke="#36B37E" stroke-width="1.51665" stroke-miterlimit="10"/>
<path d="M1057.96 29.1738L1056.09 -3.50869" stroke="#36B37E" stroke-width="1.51665" stroke-miterlimit="10"/>
<path d="M936.495 -40.1946L980.99 -11.2953L992.004 1.60142L980.453 10.2439L935.71 -26.2519L936.495 -40.1946Z" fill="white" stroke="#36B37E" stroke-width="1.51665"/>
<path d="M1010.32 80.1299L1010.66 30.7019" stroke="#36B37E" stroke-width="1.51665" stroke-miterlimit="10"/>
<path d="M948.147 -23.9379L935.272 -30.6572L931.031 47.8114L976.487 91.9092L980.433 11.2053L974.717 1.88494L948.147 -23.9379Z" fill="#172B4D"/>
</g>
<g opacity="0.48" clip-path="url(#clip5_1_468)">
<path d="M571.805 625.853L655.36 676.82C655.36 676.82 667.732 686.566 656.099 707.557C644.466 728.548 630.373 723.457 630.373 723.457L543.596 673.513C543.596 673.513 533.313 664.044 543.625 644.624C555.555 622.038 571.805 625.853 571.805 625.853Z" fill="#C5E9DA" stroke="#36B37E" stroke-width="0.736762" stroke-miterlimit="10"/>
<path d="M571.805 625.852C571.805 625.852 583.647 633.114 571.013 657.015C559.14 679.402 543.596 673.513 543.596 673.513C543.596 673.513 533.608 663.207 543.625 644.624C553.643 626.041 565.666 625.71 571.805 625.852Z" fill="#36B37E"/>
<path d="M648.728 672.74C648.728 672.74 641.001 684.502 620.66 692.629C599.086 701.268 586.799 698.378 586.799 698.378L604.23 708.442C604.23 708.442 613.378 710.374 635.929 699.848C654.339 691.273 659.597 682.812 659.597 682.812L655.259 676.791L648.728 672.74Z" fill="#172B4D"/>
<path d="M619.106 654.934C619.106 654.934 611.626 665.466 589.497 672.643C567.369 679.821 552.179 678.535 552.179 678.535L569.61 688.6C569.61 688.6 583.733 690.392 603.674 682.15C622.154 674.463 632.705 663.244 632.705 663.244L622.015 656.694L619.106 654.934Z" fill="#36B37E"/>
<path d="M571.013 657.015C571.013 657.015 594.201 658.764 607.83 647.781L592.88 638.702C592.88 638.702 586.061 641.292 576.733 639.796C576.733 639.796 574.276 650.582 571.013 657.015Z" fill="#172B4D"/>
<path d="M562.159 647.851L559.217 651.665L560.201 669.135C560.201 669.135 566.967 664.471 571.012 657.016L567.425 648.392L562.159 647.851Z" fill="white" stroke="#36B37E" stroke-width="0.736762" stroke-miterlimit="10"/>
<path d="M575.422 631.178C575.422 631.178 574.422 626.932 571.77 625.789L557.734 646.088C557.734 646.088 562.618 647.766 563.833 648.441C565.084 649.181 567.378 650.439 567.378 650.439L575.985 644.84C576.02 644.905 578.97 638.056 575.422 631.178Z" fill="white" stroke="#36B37E" stroke-width="0.736762" stroke-miterlimit="10"/>
<path d="M658.436 702.646C658.436 702.646 645.907 711.506 630.623 714.312C616.419 716.943 615.107 714.721 615.107 714.721L630.373 723.457C630.373 723.457 636.895 725.662 645.064 720.642C653.233 715.623 658.436 702.646 658.436 702.646Z" fill="#36B37E"/>
<path d="M563.868 648.505C563.868 648.505 562.774 641.955 561.462 639.734C560.15 637.512 559.858 636.832 559.858 636.832L556.754 642.335L557.769 646.152L563.868 648.505Z" fill="white" stroke="#36B37E" stroke-width="0.736762" stroke-miterlimit="10"/>
<path d="M559.153 651.701L554.825 650.725L539.312 663.17C539.312 663.17 538.914 664.737 541.142 669.987L542.519 672.173L560.892 654.696C560.827 654.732 561.348 652.171 559.153 651.701Z" fill="white" stroke="#36B37E" stroke-width="0.736762" stroke-miterlimit="10"/>
<path d="M559.152 651.701C559.152 651.701 553.405 661.864 553.627 661.657C553.849 661.45 562.463 656.016 562.463 656.016C562.463 656.016 562.151 651.643 559.152 651.701Z" fill="white" stroke="#36B37E" stroke-width="0.736762" stroke-miterlimit="10"/>
</g>
<g clip-path="url(#clip6_1_468)">
<path d="M946.353 815.519L1039.29 656.525C1039.29 656.525 1057.19 632.904 1097.09 654.049C1137 675.195 1127.92 701.889 1127.92 701.889L1037.01 866.909C1037.01 866.909 1019.56 886.59 982.663 867.873C939.749 846.226 946.353 815.519 946.353 815.519Z" fill="#C5E9DA" stroke="#36B37E" stroke-width="1.38636" stroke-miterlimit="10"/>
<path d="M946.354 815.518C946.354 815.518 959.598 792.985 1005.01 815.911C1047.55 837.457 1037.02 866.909 1037.02 866.909C1037.02 866.909 1017.98 886.064 982.664 867.873C947.349 849.682 946.302 827.074 946.354 815.518Z" fill="#36B37E"/>
<path d="M1031.85 669.146C1031.85 669.146 1054.25 683.267 1070.26 721.25C1087.27 761.533 1082.27 784.753 1082.27 784.753L1100.59 751.603C1100.59 751.603 1103.9 734.324 1083.3 692.269C1066.52 657.935 1050.42 648.342 1050.42 648.342L1039.24 656.715L1031.85 669.146Z" fill="#172B4D"/>
<path d="M999.398 725.503C999.398 725.503 1019.47 739.205 1033.76 780.583C1048.04 821.961 1046.16 850.584 1046.16 850.584L1064.48 817.434C1064.48 817.434 1067.35 790.802 1051.14 753.577C1036.03 719.08 1014.55 699.624 1014.55 699.624L1002.61 719.969L999.398 725.503Z" fill="#36B37E"/>
<path d="M1005.01 815.911C1005.01 815.911 1007.48 772.223 986.339 746.97L969.785 775.417C969.785 775.417 974.898 788.154 972.414 805.756C972.414 805.756 992.793 809.999 1005.01 815.911Z" fill="#172B4D"/>
<path d="M988.08 832.89L995.36 838.292L1028.19 835.824C1028.19 835.824 1019.18 823.26 1005.01 815.911L988.912 822.965L988.08 832.89Z" fill="white" stroke="#36B37E" stroke-width="1.38636" stroke-miterlimit="10"/>
<path d="M956.245 808.527C956.245 808.527 948.292 810.557 946.234 815.588L984.919 841.278C984.919 841.278 987.904 832.031 989.132 829.721C990.479 827.342 992.764 822.981 992.764 822.981L981.929 806.986C982.049 806.916 969.059 801.609 956.245 808.527Z" fill="white" stroke="#36B37E" stroke-width="1.38636" stroke-miterlimit="10"/>
<path d="M1087.77 649.826C1087.77 649.826 1104.88 673.084 1110.7 701.741C1116.15 728.37 1112.02 730.917 1112.02 730.917L1127.92 701.888C1127.92 701.888 1131.83 689.541 1122.1 674.349C1112.37 659.157 1087.77 649.826 1087.77 649.826Z" fill="#36B37E"/>
<path d="M989.252 829.652C989.252 829.652 976.967 831.942 972.834 834.488C968.701 837.034 967.431 837.607 967.431 837.607L977.894 843.253L985.039 841.209L989.252 829.652Z" fill="white" stroke="#36B37E" stroke-width="1.38636" stroke-miterlimit="10"/>
<path d="M995.429 838.411L993.746 846.587L1017.71 875.335C1017.71 875.335 1020.67 876.027 1030.47 871.65L1034.53 868.983L1001 835.033C1001.07 835.153 996.236 834.263 995.429 838.411Z" fill="white" stroke="#36B37E" stroke-width="1.38636" stroke-miterlimit="10"/>
<path d="M995.43 838.411C995.43 838.411 1014.75 848.866 1014.36 848.456C1013.96 848.045 1003.43 832.031 1003.43 832.031C1003.43 832.031 995.215 832.772 995.43 838.411Z" fill="white" stroke="#36B37E" stroke-width="1.38636" stroke-miterlimit="10"/>
</g>
<g clip-path="url(#clip7_1_468)">
<path d="M1381.09 2518.07L1480.88 2552H1337.7L1319.35 2550L1310.45 2544.43L1340.82 2518.07H1381.09Z" fill="#172B4D"/>
<path d="M1367.96 2455.76V2450.42C1367.96 2450.42 1356.28 2427.27 1354.61 2427.05C1352.94 2426.83 1217.22 2370.31 1217.22 2370.31L1268.95 2471L1289.42 2492.81L1367.96 2455.76Z" fill="white" stroke="#36B37E" stroke-width="1.35786" stroke-miterlimit="10"/>
<mask id="mask1_1_468" style="mask-type:alpha" maskUnits="userSpaceOnUse" x="1216" y="2369" width="154" height="126">
<path d="M1368.38 2456.36V2451.02C1368.38 2451.02 1356.7 2427.88 1355.03 2427.66C1353.36 2427.43 1217.64 2370.91 1217.64 2370.91L1269.37 2471.61L1289.84 2493.41L1368.38 2456.36Z" fill="white" stroke="#36B37E" stroke-width="1.35786" stroke-miterlimit="10"/>
</mask>
<g mask="url(#mask1_1_468)">
<path d="M1311.34 2429.61L1294.32 2430.17L1286.53 2416.37L1270.18 2417.15L1277.85 2430.61L1261.61 2431.17L1269.18 2444.85L1285.53 2444.52L1302.44 2444.08L1310.67 2458.32L1328.14 2458.21L1336.81 2472.89H1355.17L1346.16 2457.98L1337.37 2443.3L1319.68 2443.74L1311.34 2429.61Z" fill="#C5E9DA"/>
<path d="M1303.22 2415.7L1295.21 2402.13L1278.74 2403.02L1286.53 2416.37L1303.22 2415.7Z" fill="#36B37E"/>
<path d="M1328.8 2428.94L1320.35 2414.92L1303.22 2415.7L1311.34 2429.61L1328.8 2428.94Z" fill="#36B37E"/>
<path d="M1337.93 2414.15L1329.36 2400.24L1312.12 2401.13L1320.35 2414.92L1337.93 2414.15Z" fill="#36B37E"/>
<path d="M1346.71 2428.39L1328.8 2428.94L1337.37 2443.3L1355.61 2442.96L1374.3 2442.52L1365.07 2427.83L1356.06 2413.37L1337.93 2414.15L1346.71 2428.39Z" fill="#36B37E"/>
<path d="M1254.27 2417.82L1270.18 2417.15L1262.72 2403.8L1278.74 2403.02L1271.18 2389.78L1255.38 2390.78L1239.92 2391.78L1247.04 2404.69L1231.69 2405.47L1216.78 2406.25L1223.56 2419.15L1238.69 2418.49L1245.81 2431.73L1261.61 2431.17L1254.27 2417.82Z" fill="#172B4D"/>
<path d="M1230.46 2432.17L1237.47 2445.52L1253.16 2445.19L1245.81 2431.72L1230.46 2432.17Z" fill="#36B37E"/>
<path d="M1218.11 2380.21L1224.79 2392.78L1239.92 2391.78L1232.91 2379.1L1218.11 2380.21Z" fill="#36B37E"/>
<path d="M1295.21 2402.13L1312.12 2401.13L1304 2387.67L1296.1 2374.42L1279.74 2375.65L1263.72 2376.87L1271.18 2389.78L1287.42 2388.78L1295.21 2402.13Z" fill="#36B37E"/>
<path d="M1338.48 2385.44L1321.02 2386.55L1329.36 2400.24L1347.16 2399.35L1338.48 2385.44Z" fill="#36B37E"/>
<path d="M1374.53 2412.59L1365.4 2398.35L1347.16 2399.35L1356.06 2413.37L1374.53 2412.59Z" fill="#36B37E"/>
<path d="M1253.16 2445.19L1260.61 2458.98L1276.85 2458.76L1269.18 2444.85L1253.16 2445.19Z" fill="#36B37E"/>
</g>
<path d="M1337.7 2452.2L1275.41 2465.55L1273.85 2469.67L1287.75 2488.69L1337.7 2452.2Z" fill="#172B4D"/>
<path d="M1373.3 2456.43L1434.49 2307.22L1395.11 2467.77L1390.88 2469.22L1373.3 2456.43Z" fill="white" stroke="#36B37E" stroke-width="1.35786" stroke-miterlimit="10"/>
<path d="M1395.44 2466.33L1377.2 2446.86L1373.3 2456.43L1390.88 2469.22L1395.11 2467.77L1395.44 2466.33Z" fill="#36B37E"/>
<path d="M1390.88 2469.22L1378.31 2458.54L1358.84 2443.74L1309.56 2463.55L1307.33 2475.45L1319.35 2492.48L1390.88 2469.22Z" fill="white" stroke="#36B37E" stroke-width="1.35786" stroke-miterlimit="10"/>
<path d="M1365.63 2477.34L1402 2465.55L1381.09 2518.06L1351.05 2519.96L1365.63 2477.34Z" fill="white" stroke="#36B37E" stroke-width="1.35786" stroke-miterlimit="10"/>
<path d="M1326.58 2489.92L1319.35 2492.47L1316.01 2539.98L1319.35 2550L1351.05 2519.96L1365.63 2477.34L1326.58 2489.92Z" fill="white" stroke="#36B37E" stroke-width="1.35786" stroke-miterlimit="10"/>
<path d="M1423.92 2458.54L1486.77 2492.48L1326.58 2489.92L1423.92 2458.54Z" fill="#C5E9DA" stroke="#36B37E" stroke-width="1.35786" stroke-miterlimit="10"/>
<path d="M1319.35 2492.48V2484.69L1268.95 2415.37L1262.28 2425.94L1310.45 2544.43L1316.01 2539.98L1319.35 2492.48Z" fill="white" stroke="#36B37E" stroke-width="1.35786" stroke-miterlimit="10"/>
<path d="M1268.95 2415.37L1262.28 2425.94L1239.81 2446.86L1257.61 2410.92L1268.95 2415.37Z" fill="white" stroke="#36B37E" stroke-width="1.35786" stroke-miterlimit="10"/>
<path d="M1389.1 2497.82L1326.58 2489.92L1391.88 2491.03L1389.1 2497.82Z" fill="#172B4D"/>
<path d="M1333.37 2487.8L1311.56 2469.67L1310.67 2472.78L1319.35 2484.69V2492.47L1333.37 2487.8Z" fill="#172B4D"/>
<path d="M1305.78 2533.09L1300.66 2539.43L1293.98 2533.09L1259.16 2428.94L1262.28 2425.94L1305.78 2533.09Z" fill="#C5E9DA" stroke="#36B37E" stroke-width="1.35786" stroke-miterlimit="10"/>
</g>
<g clip-path="url(#clip8_1_468)">
<path d="M1317.28 3681.71L1498.94 3652.48L1599.49 3636.3L1543.27 3577.51L1278.94 3620.04L1287.27 3647.58L1317.28 3681.71Z" fill="#172B4D"/>
<path d="M1480.62 3200.95L1534.68 3233.51L1384.47 3657.61L1317.28 3681.71L1287.27 3647.58L1278.94 3620.04L1377.52 3377.97L1401.46 3355.79L1391.81 3332.82L1436.16 3219.57L1480.62 3200.95Z" fill="white"/>
<mask id="mask2_1_468" style="mask-type:alpha" maskUnits="userSpaceOnUse" x="1278" y="3200" width="257" height="482">
<path d="M1480.62 3200.95L1534.68 3233.51L1384.47 3657.61L1317.28 3681.71L1287.27 3647.58L1278.94 3620.04L1377.52 3377.97L1401.46 3355.79L1391.81 3332.82L1436.16 3219.57L1480.62 3200.95Z" fill="white"/>
</mask>
<g mask="url(#mask2_1_468)">
<path d="M1369.77 3420.93L1377.26 3399.1L1398.3 3395.94L1405.45 3374.85L1384.63 3377.97L1391.85 3357.33L1371 3360.23L1363.37 3381.17L1355.58 3402.59L1333.65 3405.89L1325.3 3428.09L1302.55 3431.98L1293.67 3455.18L1316.84 3450.99L1339.59 3447.1L1347.65 3424.49L1369.77 3420.93Z" fill="#C5E9DA"/>
<path d="M1391.18 3417.26L1412.18 3413.88L1419.08 3392.6L1398.3 3395.94L1391.18 3417.26Z" fill="#36B37E"/>
<path d="M1361.87 3443.06L1383.73 3439.31L1391.18 3417.26L1369.77 3420.93L1361.87 3443.06Z" fill="#36B37E"/>
<path d="M1376.12 3461.85L1397.95 3457.88L1405.14 3435.64L1383.73 3439.31L1376.12 3461.85Z" fill="#172B4D"/>
<path d="M1353.88 3466.12L1361.87 3443.06L1339.59 3447.1L1331.17 3470.23L1322.62 3494.06L1345.72 3489.43L1368.4 3485.09L1376.12 3461.85L1353.88 3466.12Z" fill="#172B4D"/>
<path d="M1412.26 3354.51L1405.45 3374.85L1425.82 3371.81L1419.08 3392.6L1439.45 3389.55L1446 3369.02L1452.18 3349L1432.44 3351.72L1438.88 3331.89L1445.2 3312.77L1425.62 3315L1419.11 3334.38L1398.93 3337.17L1391.85 3357.33L1412.26 3354.51Z" fill="#36B37E"/>
<path d="M1405.59 3317.31L1385.37 3319.87L1378.26 3339.81L1398.93 3337.17L1405.59 3317.31Z" fill="#172B4D"/>
<path d="M1412.18 3413.88L1405.14 3435.64L1426.11 3432.03L1446.59 3428.28L1453.04 3407.07L1459.33 3386.35L1439.45 3389.55L1432.96 3410.53L1412.18 3413.88Z" fill="#36B37E"/>
<path d="M1412.2 3476.67L1419.33 3453.98L1397.95 3457.88L1390.41 3480.86L1412.2 3476.67Z" fill="#36B37E"/>
<path d="M1360.3 3508.86L1382.73 3504.33L1390.41 3480.86L1368.4 3485.09L1360.3 3508.86Z" fill="#36B37E"/>
<path d="M1378.26 3339.81L1357.37 3342.48L1349.67 3362.97L1371 3360.23L1378.26 3339.81Z" fill="#36B37E"/>
</g>
<path d="M1480.62 3200.95L1317.28 3681.71L1384.47 3657.61L1534.68 3233.51L1480.62 3200.95Z" fill="#C5E9DA"/>
<path d="M1480.62 3200.95L1534.68 3233.51L1384.47 3657.61L1317.28 3681.71L1287.27 3647.58L1278.94 3620.04L1377.52 3377.97L1401.46 3355.79L1391.81 3332.82L1436.16 3219.57L1480.62 3200.95Z" stroke="#36B37E" stroke-width="1.57158" stroke-miterlimit="10" stroke-linejoin="round"/>
<path d="M1422.39 3371.9L1443.32 3388.01L1415.39 3392.51L1422.39 3371.9Z" fill="white"/>
<path d="M1480.16 3387.58L1443.32 3388.01L1422.39 3371.9L1401.46 3355.79" stroke="#36B37E" stroke-width="1.57158" stroke-miterlimit="10" stroke-linejoin="round"/>
<path d="M1443.32 3388.01L1415.39 3392.5L1387.28 3475.64" stroke="#36B37E" stroke-width="1.57158" stroke-miterlimit="10" stroke-linejoin="round"/>
<path d="M1515.59 3287.23L1469.12 3234.89L1425.44 3246.96" stroke="#36B37E" stroke-width="1.57158" stroke-miterlimit="10" stroke-linejoin="round"/>
<path d="M1438.37 3243.28L1429.18 3237.42" stroke="#36B37E" stroke-width="1.57158" stroke-miterlimit="10" stroke-linejoin="round"/>
<path d="M1380.28 3496.25L1344.02 3460.37L1278.94 3620.04L1287.27 3647.58L1317.28 3681.71L1380.28 3496.25Z" fill="white" stroke="#36B37E" stroke-width="1.57158" stroke-miterlimit="10" stroke-linejoin="round"/>
<path d="M1435.34 3516.49L1376.08 3508.61L1371.33 3487.6L1382.46 3492.69L1435.34 3516.49Z" fill="#172B4D"/>
</g>
<g clip-path="url(#clip9_1_468)">
<path d="M118.599 3578.79L20.9609 3583.08C20.6 3583.08 20.0582 3583.26 19.6964 3583.62L-12.8637 3616.15C-13.2255 3616.51 -13.4073 3617.05 -13.409 3617.77L-12.0396 3648.81C-12.0422 3649.89 -11.1421 3650.79 -9.87844 3650.61L73.8756 3641.47C74.4175 3641.29 74.9592 3641.11 75.321 3640.75L93.4325 3613.29L93.6133 3613.11L120.395 3582.04C121.301 3580.77 120.223 3578.61 118.599 3578.79Z" fill="#172B4D"/>
<path d="M79.1709 3407.28L-30.771 3415.94L-59.2615 3459.88L-31.8518 3575.44L0.593824 3600.64L64.3491 3595.63L75.942 3562.45L108.733 3526.45L79.1709 3407.28Z" fill="white" stroke="#36B37E" stroke-width="1.55764" stroke-miterlimit="10" stroke-linejoin="round"/>
<path d="M75.942 3562.45L17.8668 3459.16L79.1709 3407.28L108.733 3526.45L75.942 3562.45Z" fill="#C5E9DA" stroke="#36B37E" stroke-width="1.55764" stroke-miterlimit="10" stroke-linejoin="round"/>
<path d="M64.3493 3595.63L49.5947 3515.32L75.9422 3562.45L64.3493 3595.63Z" fill="white" stroke="#36B37E" stroke-width="1.55764" stroke-miterlimit="10" stroke-linejoin="round"/>
<path d="M-59.2616 3459.88L17.8667 3459.16" stroke="#36B37E" stroke-width="1.55764" stroke-miterlimit="10" stroke-linejoin="round"/>
<path d="M32.238 3446.97L11.0463 3448.69L4.83141 3459.22L27.9054 3476.86L32.238 3446.97Z" fill="#C5E9DA" stroke="#36B37E" stroke-width="1.55764" stroke-miterlimit="10" stroke-linejoin="round"/>
<mask id="mask3_1_468" style="mask-type:alpha" maskUnits="userSpaceOnUse" x="-70" y="3393" width="147" height="80">
<path d="M-13.2932 3436.64L1.13309 3440.95L10.7211 3431.02L24.4256 3435.33L14.8384 3444.91L28.3628 3449.04L18.9557 3458.79L5.25038 3454.84L-8.81585 3450.89L-18.9457 3461.01L-33.7337 3457.06L-44.2253 3467.54L-59.7352 3463.6L-48.7018 3452.93L-38.2102 3442.45L-23.423 3446.76L-13.2932 3436.64Z" fill="#C5E9DA"/>
<path d="M-3.16405 3426.88L6.604 3417.13L20.3084 3421.44L10.7213 3431.02L-3.16405 3426.88Z" fill="#36B37E"/>
<path d="M37.589 3439.46L24.4255 3435.33L33.6517 3425.75L20.3082 3421.44L29.7145 3412.04L42.6971 3416.35L55.3188 3420.67L46.6344 3430.06L59.2569 3434.02L71.6986 3438.15L63.1951 3447.36L50.5725 3443.41L41.3463 3452.99L28.3628 3449.04L37.589 3439.46Z" fill="#5E78A5"/>
<path d="M54.3299 3456.94L45.4646 3466.52L32.3002 3462.75L41.3464 3452.99L54.3299 3456.94Z" fill="#36B37E"/>
<path d="M76.4443 3415.77L67.9408 3424.98L55.3191 3420.67L64.1835 3411.45L76.4443 3415.77Z" fill="#36B37E"/>
<path d="M6.60412 3417.13L-7.28035 3412.63L2.3068 3403.06L12.074 3393.66L25.5975 3398.15L38.7593 3403.01L29.7148 3412.04L16.1913 3407.55L6.60412 3417.13Z" fill="#36B37E"/>
<path d="M32.3 3462.75L23.0728 3472.68L9.18665 3468.91L18.9556 3458.79L32.3 3462.75Z" fill="#36B37E"/>
</mask>
<g mask="url(#mask3_1_468)">
<path d="M-31.2904 3416.46L78.2671 3408.18L28.5314 3448.95L10.1008 3450.4L3.69782 3460.33L-59.5463 3460.17L-31.2904 3416.46Z" fill="#36B37E" stroke="#36B37E" stroke-width="1.55764" stroke-miterlimit="10" stroke-linejoin="round"/>
</g>
</g>
<path d="M304.531 3593.42L308.542 3585.08C308.644 3584.87 308.817 3584.7 309.03 3584.6L369.722 3557.07C370.017 3556.93 370.358 3556.95 370.638 3557.11L400.959 3574.8C401.73 3575.24 401.571 3576.4 400.708 3576.63L323.934 3596.63C323.819 3596.66 323.701 3596.67 323.583 3596.66L305.333 3594.85C304.642 3594.78 304.23 3594.05 304.531 3593.42Z" fill="#172B4D"/>
<g clip-path="url(#clip10_1_468)">
<path d="M308.165 3528.84L291.146 3574.93L310.986 3588.13L368.573 3560.78L386.237 3537L343.731 3523.71L308.165 3528.84Z" fill="white" stroke="#36B37E" stroke-width="1.63467" stroke-miterlimit="10" stroke-linejoin="round"/>
<path d="M328.19 3547.38L330.083 3551.37L368.573 3560.78L371.205 3557.17L386.237 3537L343.731 3523.71L328.19 3547.38Z" fill="#C5E9DA" stroke="#36B37E" stroke-width="1.63467" stroke-miterlimit="10" stroke-linejoin="round"/>
<path d="M343.731 3523.71L330.342 3545.82L291.146 3574.93" fill="white"/>
<path d="M343.731 3523.71L330.342 3545.82L291.146 3574.93" stroke="#36B37E" stroke-width="1.63467" stroke-miterlimit="10" stroke-linejoin="round"/>
<path d="M323.217 3551.01L325.041 3540.37L335.185 3537.73L330.083 3551.37L323.217 3551.01Z" fill="#172B4D" stroke="#36B37E" stroke-width="1.63467" stroke-miterlimit="10" stroke-linejoin="round"/>
<path d="M368.573 3560.78L330.083 3551.37" stroke="#36B37E" stroke-width="1.63467" stroke-miterlimit="10" stroke-linejoin="round"/>
<path d="M355.258 3557.51L361.947 3552.16L361.224 3559.02L356.104 3562.72L355.258 3557.51Z" fill="white" stroke="#36B37E" stroke-width="1.63467" stroke-miterlimit="10" stroke-linejoin="round"/>
<path d="M361.947 3552.16L360.298 3528.87" stroke="#36B37E" stroke-width="1.63467" stroke-miterlimit="10" stroke-linejoin="round"/>
<mask id="mask4_1_468" style="mask-type:alpha" maskUnits="userSpaceOnUse" x="290" y="3550" width="80" height="39">
<path d="M291.146 3574.93L323.217 3551.01L334.524 3552.34L368.573 3560.78L364.439 3562.74L310.986 3588.13L291.146 3574.93Z" fill="white" stroke="#36B37E" stroke-width="1.63467" stroke-miterlimit="10" stroke-linejoin="round"/>
</mask>
<g mask="url(#mask4_1_468)">
<path d="M324.141 3562.54L328.534 3553.21L338.322 3552.86L342.434 3543.89L333.103 3544.25L337.4 3535.2L327.797 3535.46L323.5 3544.52L318.835 3553.74L308.775 3554L304.012 3563.5L293.583 3563.93L288.355 3573.88L298.968 3573.36L309.309 3572.75L314.169 3562.97L324.141 3562.54Z" fill="#36B37E"/>
<path d="M333.928 3562.18L343.628 3561.65L347.652 3552.5L338.322 3552.86L333.928 3562.18Z" fill="#36B37E"/>
<path d="M319.466 3572.22L329.535 3571.51L333.928 3562.18L324.141 3562.53L319.466 3572.22Z" fill="#C5E9DA"/>
<path d="M324.86 3581.2L334.744 3580.57L339.235 3570.98L329.535 3571.51L324.86 3581.2Z" fill="#36B37E"/>
<path d="M314.791 3581.91L319.466 3572.22L309.309 3572.75L304.45 3582.52L299.397 3592.84L309.835 3591.95L320.176 3591.34L324.86 3581.2L314.791 3581.91Z" fill="#36B37E"/>
<path d="M346.633 3535.11L342.434 3543.89L351.764 3543.53L347.652 3552.5L356.983 3552.14L360.91 3543.26L364.741 3534.66L355.779 3534.84L359.697 3526.42L363.431 3518.08L354.654 3518.18L350.736 3526.6L341.502 3526.69L337.4 3535.2L346.633 3535.11Z" fill="#36B37E"/>
<path d="M343.628 3561.65L339.235 3570.98L348.75 3570.53L358.178 3569.9L362.202 3560.75L366.129 3551.87L356.983 3552.14L352.959 3561.29L343.628 3561.65Z" fill="#36B37E"/>
<path d="M340.226 3589.73L344.629 3579.95L334.744 3580.57L330.342 3590.36L340.226 3589.73Z" fill="#36B37E"/>
<path d="M315.492 3601.48L325.658 3600.5L330.342 3590.36L320.176 3591.34L315.492 3601.48Z" fill="#36B37E"/>
</g>
</g>
<path d="M-3.95312 2628.82L224.485 2625.92L135.963 2602.03L145.941 2581.31L202.558 2573.69L188.055 2570.39L149.073 2568.68L-3.95312 2628.82Z" fill="#172B4D"/>
<path d="M122.389 2523.05L115.428 2523.17L57.5352 2502L122.969 2538.41L133.643 2529.77L122.389 2523.05Z" fill="#36B37E"/>
<path d="M122.389 2523.05L235.042 2502.8L178.774 2556.39L122.389 2523.05Z" fill="#172B4D"/>
<path d="M57.5352 2502L169.956 2564.7L144.664 2569.25L82.711 2573.69L57.5352 2502Z" fill="white" stroke="#36B37E" stroke-width="1.43685" stroke-miterlimit="10" stroke-linejoin="round"/>
<path d="M169.956 2564.7L235.042 2502.8L188.055 2570.39L169.956 2564.7Z" fill="white" stroke="#36B37E" stroke-width="1.43685" stroke-miterlimit="10" stroke-linejoin="round"/>
<path d="M122.969 2538.41L152.09 2514.86L155.106 2517.25L145.941 2551.27L122.969 2538.41Z" fill="white" stroke="#36B37E" stroke-width="1.43685" stroke-miterlimit="10" stroke-linejoin="round"/>
<path d="M155.106 2517.25L181.442 2553.89L169.956 2564.7L145.94 2551.27L155.106 2517.25Z" fill="white" stroke="#36B37E" stroke-width="1.43685" stroke-miterlimit="10" stroke-linejoin="round"/>
<path d="M188.055 2570.39L144.665 2569.25L169.956 2564.7L188.055 2570.39Z" fill="white" stroke="#36B37E" stroke-width="1.43685" stroke-miterlimit="10" stroke-linejoin="round"/>
<path d="M38.1605 2552.87L28.8791 2554.46L-52.7974 2538.3L42.3371 2573.12L54.751 2559.35L38.1605 2552.87Z" fill="white" stroke="#36B37E" stroke-width="1.43685" stroke-miterlimit="10" stroke-linejoin="round"/>
<path d="M38.1606 2552.87L183.879 2502.8L120.417 2585.3L38.1606 2552.87Z" fill="#C5E9DA" stroke="#36B37E" stroke-width="1.43685" stroke-miterlimit="10"/>
<path d="M-52.7974 2538.3L110.672 2598.04L77.8385 2609.42L-3.83791 2627.97L-52.7974 2538.3Z" fill="white" stroke="#36B37E" stroke-width="1.43685" stroke-miterlimit="10" stroke-linejoin="round"/>
<path d="M110.671 2598.04L183.878 2502.8L135.963 2602.03L110.671 2598.04Z" fill="white" stroke="#36B37E" stroke-width="1.43685" stroke-miterlimit="10" stroke-linejoin="round"/>
<path d="M42.3369 2573.12L76.0981 2535.91L80.6227 2538.3L75.75 2585.3L42.3369 2573.12Z" fill="#36B37E"/>
<path d="M80.6227 2538.3L123.433 2581.43L110.671 2598.04L75.75 2585.3L80.6227 2538.3Z" fill="white" stroke="#36B37E" stroke-width="1.43685" stroke-miterlimit="10" stroke-linejoin="round"/>
<path d="M135.963 2602.03L77.8384 2609.42L110.671 2598.04L135.963 2602.03Z" fill="white" stroke="#36B37E" stroke-width="1.43685" stroke-miterlimit="10" stroke-linejoin="round"/>
<mask id="mask5_1_468" style="mask-type:alpha" maskUnits="userSpaceOnUse" x="-54" y="2538" width="166" height="91">
<path d="M-53 2538.72L110.364 2597.8L78.0132 2608.74L-3.66327 2627.29L-53 2538.72Z" fill="white" stroke="#36B37E" stroke-width="1.43685" stroke-miterlimit="10" stroke-linejoin="round"/>
</mask>
<g mask="url(#mask5_1_468)">
<path d="M45.3535 2600.43L27.6028 2601L19.3656 2587L2.31099 2587.69L10.3162 2601.57L-6.50635 2602.02L1.26683 2616.02L18.4374 2615.68L35.9561 2615.22L44.5414 2629.9L62.8722 2629.68L71.9216 2644.7H90.9485L81.6671 2629.45L72.5017 2614.54L53.9388 2614.88L45.3535 2600.43Z" fill="#C5E9DA"/>
<path d="M36.7685 2586.21L28.4152 2572.32L11.2446 2573.23L19.3659 2587L36.7685 2586.21Z" fill="#C5E9DA"/>
<path d="M63.4526 2599.86L54.7513 2585.41L36.7686 2586.21L45.3539 2600.43L63.4526 2599.86Z" fill="#36B37E"/>
<path d="M73.0819 2584.73L64.1486 2570.39L46.0498 2571.41L54.7511 2585.41L73.0819 2584.73Z" fill="#172B4D"/>
<path d="M82.1315 2599.18L63.4526 2599.86L72.502 2614.54L91.4129 2614.09L110.904 2613.63L101.274 2598.61L91.877 2583.93L73.0821 2584.73L82.1315 2599.18Z" fill="#36B37E"/>
<path d="M-14.2795 2588.37L2.31104 2587.69L-5.46215 2574.15L11.2444 2573.23L3.3552 2559.69L-13.1193 2560.72L-29.2458 2561.74L-21.8206 2574.94L-37.7151 2575.85L-53.3774 2576.65L-46.3004 2589.73L-30.4059 2589.05L-22.9808 2602.59L-6.5063 2602.02L-14.2795 2588.37Z" fill="#36B37E"/>
<path d="M28.415 2572.32L46.0497 2571.41L37.5804 2557.65L29.3432 2544.1L12.2886 2545.36L-4.41797 2546.49L3.35522 2559.69L20.2938 2558.67L28.415 2572.32Z" fill="#36B37E"/>
<path d="M73.662 2555.37L55.4473 2556.51L64.1486 2570.39L82.7114 2569.48L73.662 2555.37Z" fill="#36B37E"/>
<path d="M111.252 2583.02L101.622 2568.46L82.7114 2569.48L91.8768 2583.93L111.252 2583.02Z" fill="#36B37E"/>
<path d="M-15.4395 2616.36L-7.66627 2630.47L9.27232 2630.25L1.26709 2616.02L-15.4395 2616.36Z" fill="#36B37E"/>
</g>
<defs>
<clipPath id="clip0_1_468">
<rect width="302.379" height="345.234" fill="white" transform="translate(1117.2 216.345) rotate(-15.2643)"/>
</clipPath>
<clipPath id="clip1_1_468">
<rect width="136.667" height="156.036" fill="white" transform="translate(441.162 815.057) rotate(152.88)"/>
</clipPath>
<clipPath id="clip2_1_468">
<rect width="52.7646" height="60.2428" fill="white" transform="translate(557.495 92.0137) rotate(82.5164)"/>
</clipPath>
<clipPath id="clip3_1_468">
<rect width="217" height="220.885" fill="white" transform="translate(110.136 217.736) rotate(22.1095)"/>
</clipPath>
<clipPath id="clip4_1_468">
<rect width="220.218" height="147.722" fill="white" transform="translate(1056.92 148.65) rotate(-145.241)"/>
</clipPath>
<clipPath id="clip5_1_468">
<rect width="123.408" height="98.3577" fill="white" transform="translate(613.087 597.736) rotate(61.0741)"/>
</clipPath>
<clipPath id="clip6_1_468">
<rect width="232.215" height="185.079" fill="white" transform="translate(892 738.844) rotate(-30)"/>
</clipPath>
<clipPath id="clip7_1_468">
<rect width="273" height="245" fill="white" transform="matrix(-1 0 0 1 1489 2307)"/>
</clipPath>
<clipPath id="clip8_1_468">
<rect width="316.165" height="450.963" fill="white" transform="matrix(-0.987301 0.15886 0.15886 0.987301 1529.15 3192)"/>
</clipPath>
<clipPath id="clip9_1_468">
<rect width="236" height="261.092" fill="white" transform="matrix(-0.707463 0.706751 0.706751 0.707463 8.96094 3337)"/>
</clipPath>
<clipPath id="clip10_1_468">
<rect width="105.273" height="67.1849" fill="white" transform="translate(274 3544.17) rotate(-25.4057)"/>
</clipPath>
</defs>
</svg>
